<svg width="56" height="48" viewBox="0 0 56 48" fill="none" xmlns="http://www.w3.org/2000/svg">
<path fill-rule="evenodd" clip-rule="evenodd" d="M4 0C2.93913 0 1.92172 0.421427 1.17157 1.17157C0.421428 1.92172 0 2.93913 0 4V44C0 45.0609 0.421428 46.0783 1.17157 46.8284C1.92172 47.5786 2.93913 48 4 48H52C53.0609 48 54.0783 47.5786 54.8284 46.8284C55.5786 46.0783 56 45.0609 56 44V4C56 2.93913 55.5786 1.92172 54.8284 1.17157C54.0783 0.421427 53.0609 0 52 0L4 0ZM5 7C5.53043 7 6.03914 6.78929 6.41422 6.41421C6.78929 6.03914 7 5.53043 7 5C7 4.46957 6.78929 3.96086 6.41422 3.58579C6.03914 3.21071 5.53043 3 5 3C4.46957 3 3.96086 3.21071 3.58578 3.58579C3.21071 3.96086 3 4.46957 3 5C3 5.53043 3.21071 6.03914 3.58578 6.41421C3.96086 6.78929 4.46957 7 5 7ZM13 5C13 5.53043 12.7893 6.03914 12.4142 6.41421C12.0391 6.78929 11.5304 7 11 7C10.4696 7 9.96086 6.78929 9.58578 6.41421C9.21071 6.03914 9 5.53043 9 5C9 4.46957 9.21071 3.96086 9.58578 3.58579C9.96086 3.21071 10.4696 3 11 3C11.5304 3 12.0391 3.21071 12.4142 3.58579C12.7893 3.96086 13 4.46957 13 5V5ZM17 7C17.5304 7 18.0391 6.78929 18.4142 6.41421C18.7893 6.03914 19 5.53043 19 5C19 4.46957 18.7893 3.96086 18.4142 3.58579C18.0391 3.21071 17.5304 3 17 3C16.4696 3 15.9609 3.21071 15.5858 3.58579C15.2107 3.96086 15 4.46957 15 5C15 5.53043 15.2107 6.03914 15.5858 6.41421C15.9609 6.78929 16.4696 7 17 7Z" fill="#A5F3FC"/>
<path d="M28 18C22.0366 18.4862 18.9912 20.2294 14 25.5C19.5108 30.9694 22.5739 32.4549 28 33C33.9634 32.5138 37.0087 30.7706 42 25.5C36.4892 20.0306 33.4261 18.5451 28 18Z" stroke="white" stroke-width="2"/>
<path d="M35.5 25.5C35.5 29.3361 32.173 32.5 28 32.5C23.827 32.5 20.5 29.3361 20.5 25.5C20.5 21.6639 23.827 18.5 28 18.5C32.173 18.5 35.5 21.6639 35.5 25.5Z" stroke="white"/>
<ellipse cx="28" cy="25.5" rx="4" ry="3.5" fill="white"/>
<path d="M27 23.5C27 24.3284 26.3284 25 25.5 25C24.6716 25 24 24.3284 24 23.5C24 22.6716 24.6716 22 25.5 22C26.3284 22 27 22.6716 27 23.5Z" fill="#A5F3FC"/>
</svg>
