<svg width="56" height="46" viewBox="0 0 56 46" fill="none" xmlns="http://www.w3.org/2000/svg">
<rect x="3" y="37" width="6" height="6" rx="3" fill="#A5F3FC"/>
<rect x="14" y="36" width="8" height="8" rx="3" fill="#A5F3FC"/>
<path d="M28 38C28 36.3431 29.3431 35 31 35H35C36.6569 35 38 36.3431 38 38V42C38 43.6569 36.6569 45 35 45H31C29.3431 45 28 43.6569 28 42V38Z" fill="#A5F3FC"/>
<rect x="43" y="34" width="12" height="12" rx="3" fill="#A5F3FC"/>
<rect y="25" width="28" height="5" rx="2.5" fill="#A5F3FC"/>
<rect width="35" height="5" rx="2.5" fill="#A5F3FC"/>
<rect y="9" width="12" height="12" rx="3" fill="#A5F3FC"/>
<rect x="15" y="9" width="12" height="12" rx="3" fill="#A5F3FC"/>
<rect x="30" y="9" width="12" height="12" rx="3" fill="#A5F3FC"/>
<rect x="44" y="9" width="12" height="12" rx="3" fill="#A5F3FC"/>
</svg>
