<svg width="56" height="48" viewBox="0 0 56 48" fill="none" xmlns="http://www.w3.org/2000/svg">
<rect x="2" y="2" width="52" height="44" rx="3" fill="#A5F3FC"/>
<path opacity="0.8" d="M46.4142 44.5858L52.5858 38.4142C53.8457 37.1543 56 38.0466 56 39.8284L56 46C56 47.1046 55.1046 48 54 48L47.8284 48C46.0466 48 45.1543 45.8457 46.4142 44.5858Z" fill="#22D3EE"/>
<path opacity="0.8" d="M3.41421 38.4142L9.58579 44.5858C10.8457 45.8457 9.95338 48 8.17157 48L2 48C0.895431 48 -3.91405e-08 47.1046 -8.74228e-08 46L-3.57191e-07 39.8284C-4.35076e-07 38.0466 2.15429 37.1543 3.41421 38.4142Z" fill="#22D3EE"/>
<path opacity="0.8" d="M52.5858 9.58578L46.4142 3.41421C45.1543 2.15428 46.0466 -4.35076e-07 47.8284 -3.57191e-07L54 -8.74228e-08C55.1046 -3.91405e-08 56 0.89543 56 2L56 8.17157C56 9.95338 53.8457 10.8457 52.5858 9.58578Z" fill="#22D3EE"/>
<path opacity="0.8" d="M9.58578 3.41422L3.41421 9.58579C2.15428 10.8457 0 9.95338 0 8.17157L0 2C0 0.895431 0.89543 0 2 0L8.17157 0C9.95338 0 10.8457 2.15429 9.58578 3.41422Z" fill="#22D3EE"/>
</svg>
