<svg width="56" height="48" viewBox="0 0 56 48" fill="none" xmlns="http://www.w3.org/2000/svg">
<path fill-rule="evenodd" clip-rule="evenodd" d="M4 -3.05176e-05C2.93913 -3.05176e-05 1.92172 0.421397 1.17157 1.17154C0.421428 1.92169 0 2.9391 0 3.99997V44C0 45.0608 0.421428 46.0783 1.17157 46.8284C1.92172 47.5785 2.93913 48 4 48H52C53.0609 48 54.0783 47.5785 54.8284 46.8284C55.5786 46.0783 56 45.0608 56 44V3.99997C56 2.9391 55.5786 1.92169 54.8284 1.17154C54.0783 0.421397 53.0609 -3.05176e-05 52 -3.05176e-05L4 -3.05176e-05ZM5 6.99997C5.53043 6.99997 6.03914 6.78926 6.41422 6.41418C6.78929 6.03911 7 5.5304 7 4.99997C7 4.46954 6.78929 3.96083 6.41422 3.58576C6.03914 3.21068 5.53043 2.99997 5 2.99997C4.46957 2.99997 3.96086 3.21068 3.58578 3.58576C3.21071 3.96083 3 4.46954 3 4.99997C3 5.5304 3.21071 6.03911 3.58578 6.41418C3.96086 6.78926 4.46957 6.99997 5 6.99997ZM13 4.99997C13 5.5304 12.7893 6.03911 12.4142 6.41418C12.0391 6.78926 11.5304 6.99997 11 6.99997C10.4696 6.99997 9.96086 6.78926 9.58578 6.41418C9.21071 6.03911 9 5.5304 9 4.99997C9 4.46954 9.21071 3.96083 9.58578 3.58576C9.96086 3.21068 10.4696 2.99997 11 2.99997C11.5304 2.99997 12.0391 3.21068 12.4142 3.58576C12.7893 3.96083 13 4.46954 13 4.99997V4.99997ZM17 6.99997C17.5304 6.99997 18.0391 6.78926 18.4142 6.41418C18.7893 6.03911 19 5.5304 19 4.99997C19 4.46954 18.7893 3.96083 18.4142 3.58576C18.0391 3.21068 17.5304 2.99997 17 2.99997C16.4696 2.99997 15.9609 3.21068 15.5858 3.58576C15.2107 3.96083 15 4.46954 15 4.99997C15 5.5304 15.2107 6.03911 15.5858 6.41418C15.9609 6.78926 16.4696 6.99997 17 6.99997Z" fill="#A5F3FC"/>
<path d="M5 10.5H20C21.3807 10.5 22.5 11.6193 22.5 13V15C22.5 16.3807 21.3807 17.5 20 17.5H5C3.61929 17.5 2.5 16.3807 2.5 15V13C2.5 11.6193 3.61929 10.5 5 10.5Z" fill="#22D3EE" fill-opacity="0.5" stroke="#22D3EE"/>
<path fill-rule="evenodd" clip-rule="evenodd" d="M12 12C12.0529 12 12.1037 12.0211 12.1411 12.0586C12.1785 12.0961 12.1995 12.147 12.1995 12.2L12.1995 15.3172L12.657 14.8586C12.6754 14.8395 12.6974 14.8243 12.7217 14.8138C12.7461 14.8033 12.7723 14.7978 12.7988 14.7976C12.8252 14.7973 12.8515 14.8024 12.876 14.8125C12.9006 14.8225 12.9228 14.8374 12.9416 14.8562C12.9603 14.8749 12.9751 14.8973 12.9851 14.9218C12.9952 14.9464 13.0002 14.9728 13 14.9993C12.9998 15.0259 12.9943 15.0521 12.9838 15.0765C12.9733 15.1009 12.9581 15.123 12.9391 15.1414L12.1411 15.9414C12.1036 15.9789 12.0529 16 12 16C11.9471 16 11.8964 15.9789 11.8589 15.9414L11.0609 15.1414C11.0419 15.123 11.0267 15.1009 11.0162 15.0765C11.0057 15.0521 11.0002 15.0259 11 14.9993C10.9998 14.9728 11.0048 14.9464 11.0149 14.9218C11.0249 14.8973 11.0397 14.8749 11.0584 14.8562C11.0772 14.8374 11.0994 14.8225 11.124 14.8125C11.1485 14.8024 11.1748 14.7973 11.2012 14.7976C11.2277 14.7978 11.2539 14.8033 11.2783 14.8138C11.3026 14.8243 11.3246 14.8395 11.343 14.8586L11.8005 15.3172L11.8005 12.2C11.8005 12.147 11.8215 12.0961 11.8589 12.0586C11.8963 12.0211 11.9471 12 12 12Z" fill="white"/>
</svg>
