<svg width="64" height="48" viewBox="0 0 64 48" fill="none" xmlns="http://www.w3.org/2000/svg">
<path fill-rule="evenodd" clip-rule="evenodd" d="M2 24.5C2 24.3148 2.07375 24.1372 2.20503 24.0062C2.3363 23.8753 2.51435 23.8017 2.70001 23.8017H13.6103L12.0052 22.2006C11.9383 22.1361 11.885 22.0591 11.8483 21.9739C11.8116 21.8887 11.7923 21.7971 11.7915 21.7044C11.7907 21.6116 11.8084 21.5197 11.8436 21.4339C11.8788 21.3481 11.9308 21.2701 11.9965 21.2045C12.0623 21.139 12.1404 21.0871 12.2264 21.052C12.3125 21.0169 12.4046 20.9992 12.4976 21C12.5905 21.0008 12.6824 21.0201 12.7678 21.0567C12.8532 21.0933 12.9304 21.1465 12.995 21.2132L15.795 24.0063C15.9263 24.1373 16 24.3148 16 24.5C16 24.6852 15.9263 24.8627 15.795 24.9937L12.995 27.7868C12.9304 27.8535 12.8532 27.9067 12.7678 27.9433C12.6824 27.9799 12.5905 27.9992 12.4976 28C12.4046 28.0008 12.3125 27.9831 12.2264 27.948C12.1404 27.9129 12.0623 27.861 11.9965 27.7955C11.9308 27.7299 11.8788 27.6519 11.8436 27.5661C11.8084 27.4803 11.7907 27.3884 11.7915 27.2956C11.7923 27.2029 11.8116 27.1113 11.8483 27.0261C11.885 26.9409 11.9383 26.8639 12.0052 26.7994L13.6103 25.1983H2.70001C2.51435 25.1983 2.3363 25.1247 2.20503 24.9938C2.07375 24.8628 2 24.6852 2 24.5Z" fill="url(#paint0_linear)"/>
<path fill-rule="evenodd" clip-rule="evenodd" d="M62 24.5C62 24.6852 61.9263 24.8628 61.795 24.9938C61.6637 25.1247 61.4856 25.1983 61.3 25.1983L50.3897 25.1983L51.9948 26.7994C52.0617 26.8639 52.115 26.9409 52.1517 27.0261C52.1884 27.1113 52.2077 27.2029 52.2085 27.2956C52.2093 27.3884 52.1916 27.4803 52.1564 27.5661C52.1212 27.6519 52.0692 27.7299 52.0035 27.7955C51.9377 27.861 51.8596 27.9129 51.7736 27.948C51.6875 27.9831 51.5954 28.0008 51.5024 28C51.4095 27.9992 51.3176 27.9799 51.2322 27.9433C51.1468 27.9067 51.0696 27.8535 51.005 27.7868L48.205 24.9937C48.0737 24.8627 48 24.6852 48 24.5C48 24.3148 48.0737 24.1373 48.205 24.0063L51.005 21.2132C51.0696 21.1465 51.1468 21.0933 51.2322 21.0567C51.3176 21.0201 51.4095 21.0008 51.5024 21C51.5954 20.9992 51.6875 21.0169 51.7736 21.052C51.8596 21.0871 51.9377 21.139 52.0035 21.2045C52.0692 21.2701 52.1212 21.3481 52.1564 21.4339C52.1916 21.5197 52.2093 21.6116 52.2085 21.7044C52.2077 21.7971 52.1884 21.8887 52.1517 21.9739C52.115 22.0591 52.0617 22.1361 51.9948 22.2006L50.3897 23.8017L61.3 23.8017C61.4856 23.8017 61.6637 23.8753 61.795 24.0062C61.9263 24.1372 62 24.3148 62 24.5Z" fill="url(#paint1_linear)"/>
<rect x="17" width="30" height="48" rx="3" fill="#A5F3FC"/>
<rect x="0.25" y="0.25" width="0.5" height="47.5" rx="0.25" stroke="#A5F3FC" stroke-width="0.5" stroke-dasharray="2 2"/>
<rect x="63.25" y="0.25" width="0.5" height="47.5" rx="0.25" stroke="#A5F3FC" stroke-width="0.5" stroke-dasharray="2 2"/>
<defs>
<linearGradient id="paint0_linear" x1="-0.100022" y1="24.5" x2="15.3001" y2="24.5" gradientUnits="userSpaceOnUse">
<stop stop-color="#A5F3FC"/>
<stop offset="1" stop-color="#22D3EE"/>
</linearGradient>
<linearGradient id="paint1_linear" x1="64.1" y1="24.5" x2="48.6999" y2="24.5" gradientUnits="userSpaceOnUse">
<stop stop-color="#A5F3FC"/>
<stop offset="1" stop-color="#22D3EE"/>
</linearGradient>
</defs>
</svg>
