<?xml version="1.0" standalone="no"?>
<!DOCTYPE svg PUBLIC "-//W3C//DTD SVG 20010904//EN"
 "http://www.w3.org/TR/2001/REC-SVG-20010904/DTD/svg10.dtd">
<svg version="1.0" xmlns="http://www.w3.org/2000/svg"
 width="555.000000pt" height="555.000000pt" viewBox="0 0 555.000000 555.000000"
 preserveAspectRatio="xMidYMid meet">
<metadata>
Created by potrace 1.11, written by Peter Selinger 2001-2013
</metadata>
<g transform="translate(0.000000,555.000000) scale(0.100000,-0.100000)"
fill="#000000" stroke="none">
<path d="M2640 5028 c-36 -5 -77 -10 -92 -11 -16 -1 -28 -4 -28 -7 0 -3 -25
-11 -57 -19 -31 -7 -63 -17 -72 -21 -9 -5 -52 -25 -96 -46 -319 -148 -613
-439 -1015 -1004 l-121 -170 -52 -1 c-142 -2 -316 -20 -425 -45 -15 -4 -36 -7
-47 -8 -11 0 -22 -4 -25 -8 -3 -4 -17 -9 -30 -12 -83 -16 -301 -115 -394 -179
-125 -84 -191 -168 -181 -228 17 -97 218 -416 347 -549 89 -92 130 -113 253
-125 33 -3 78 -8 100 -10 63 -6 453 -18 641 -19 l171 -1 1 -28 c2 -70 26 -113
62 -115 274 -13 1675 -18 2075 -8 83 2 169 5 192 5 33 1 46 6 58 24 18 28 25
82 15 117 l-7 25 191 1 c200 1 572 12 641 19 22 2 67 6 100 10 63 6 107 12
140 19 11 3 26 5 33 5 14 1 142 125 142 138 0 5 12 22 28 39 15 16 27 32 28
34 0 3 12 23 26 45 44 71 113 188 114 194 0 3 12 31 27 61 35 75 47 123 35
145 -8 12 -7 20 3 27 11 7 11 8 -2 6 -8 -2 -43 24 -76 57 -80 78 -162 143
-251 198 -39 24 -69 47 -66 50 3 3 -1 5 -8 4 -7 0 -43 13 -80 31 -37 18 -72
32 -78 32 -5 0 -10 5 -10 10 0 6 -11 10 -25 10 -14 0 -33 4 -43 10 -22 12
-140 44 -222 60 -36 7 -70 17 -77 22 -7 5 -14 5 -18 -2 -3 -6 -10 -8 -15 -5
-11 7 -117 14 -223 15 -82 0 -88 1 -96 23 -5 13 -16 29 -25 36 -9 7 -16 17
-16 22 0 8 -29 54 -68 108 -9 14 -16 31 -16 38 1 7 -1 11 -5 8 -4 -2 -32 33
-62 78 -29 45 -57 87 -61 92 -93 120 -102 135 -76 119 7 -4 8 -3 4 5 -4 6 -11
9 -16 6 -5 -3 -14 3 -19 14 -6 11 -17 25 -23 33 -7 7 -33 38 -58 68 -76 93
-171 191 -295 305 -24 22 -23 21 -115 83 -36 23 -68 48 -72 55 -4 7 -8 9 -8 4
0 -4 -30 8 -67 26 -38 19 -86 40 -108 47 -22 7 -44 15 -49 18 -5 3 -23 6 -40
8 -17 2 -42 6 -56 9 -43 11 -172 12 -240 3z"/>
<path d="M3236 4948 c3 -5 10 -6 15 -3 13 9 11 12 -6 12 -8 0 -12 -4 -9 -9z"/>
<path d="M3587 4629 c7 -7 15 -10 18 -7 3 3 -2 9 -12 12 -14 6 -15 5 -6 -5z"/>
<path d="M1136 3788 c3 -5 10 -6 15 -3 13 9 11 12 -6 12 -8 0 -12 -4 -9 -9z"/>
<path d="M5475 3361 c-3 -5 -2 -12 3 -15 5 -3 9 1 9 9 0 17 -3 19 -12 6z"/>
<path d="M2207 2214 c-1 -1 -40 -4 -87 -8 -113 -8 -143 -13 -221 -36 -49 -15
-68 -26 -77 -44 -24 -54 -34 -115 -33 -220 1 -194 46 -299 140 -327 20 -6 77
-12 126 -14 207 -9 432 68 460 156 4 11 11 17 16 14 5 -3 6 1 3 9 -4 10 -1 16
7 16 7 0 10 3 6 6 -3 3 1 24 9 47 8 22 17 54 20 71 9 46 10 186 2 186 -5 0 -8
8 -8 18 0 42 -92 112 -147 112 -18 0 -33 3 -33 8 0 5 -176 11 -183 6z"/>
<path d="M2556 2197 c3 -10 9 -15 12 -12 3 3 0 11 -7 18 -10 9 -11 8 -5 -6z"/>
<path d="M2595 2151 c-3 -5 -2 -12 3 -15 5 -3 9 1 9 9 0 17 -3 19 -12 6z"/>
<path d="M4513 1675 c0 -8 4 -12 9 -9 5 3 6 10 3 15 -9 13 -12 11 -12 -6z"/>
<path d="M1145 1609 c-22 -5 -51 -10 -64 -13 -13 -3 -66 -26 -119 -51 -158
-78 -287 -223 -340 -386 -54 -161 -49 -307 13 -434 67 -139 188 -225 380 -272
11 -3 65 -6 120 -8 183 -7 309 33 532 169 409 249 762 365 888 293 50 -29 94
-27 144 6 53 35 81 95 76 162 -3 43 -13 67 -55 131 -102 157 -202 228 -320
228 -98 0 -131 -20 -435 -262 -219 -175 -340 -257 -465 -315 -80 -37 -108 -48
-160 -62 -3 0 -14 -4 -25 -8 -41 -13 -82 -19 -165 -23 -84 -3 -174 11 -165 26
3 5 -3 6 -12 4 -28 -8 -97 50 -128 108 -26 47 -29 62 -29 141 0 54 5 92 12 99
7 7 12 20 12 31 0 10 4 15 10 12 5 -3 7 0 5 7 -3 8 4 23 15 35 11 12 20 27 20
33 0 5 3 10 8 10 4 0 21 13 37 28 104 96 290 139 364 84 30 -22 57 -71 45 -81
-5 -3 -9 -12 -9 -20 0 -20 -44 -49 -82 -55 -23 -3 -40 2 -59 16 -33 27 -47 14
-48 -46 -3 -205 388 -139 442 74 6 24 9 47 6 52 -3 4 0 8 7 8 10 0 10 3 1 12
-7 7 -12 21 -12 32 0 61 -87 168 -164 204 -72 34 -197 47 -281 31z"/>
<path d="M4253 1604 c-134 -34 -227 -135 -240 -260 -5 -44 -1 -62 21 -108 30
-62 65 -95 140 -134 42 -22 65 -26 127 -27 86 0 123 14 145 57 18 34 18 99 0
123 -13 18 -14 18 -24 -2 -14 -25 -46 -35 -63 -19 -9 8 -10 8 -5 -1 5 -9 0
-10 -22 -2 -37 13 -72 45 -72 65 0 33 32 83 62 95 33 14 115 18 164 8 93 -20
213 -105 261 -186 52 -89 62 -212 24 -297 -19 -43 -75 -103 -92 -98 -5 1 -9
-2 -9 -6 0 -12 -50 -33 -61 -27 -5 4 -9 1 -9 -6 0 -7 -13 -10 -34 -7 -20 2
-32 0 -29 -5 6 -10 -145 -3 -198 8 -68 14 -171 51 -244 87 -44 22 -90 46 -102
52 -13 6 -23 14 -23 19 0 4 -4 7 -10 7 -16 0 -85 51 -82 62 1 5 -1 7 -6 4 -7
-4 -75 42 -147 99 -11 9 -36 28 -55 43 -19 15 -49 41 -67 58 -18 18 -33 30
-33 28 0 -2 -25 16 -55 40 -30 25 -64 50 -75 56 -11 6 -18 15 -16 19 3 4 0 8
-7 8 -17 0 -67 33 -67 44 0 5 -3 8 -7 7 -19 -3 -101 27 -96 35 3 6 2 8 -3 5
-5 -4 -32 -9 -61 -13 -67 -8 -124 -36 -180 -88 -53 -48 -143 -164 -143 -183 0
-7 -5 -14 -12 -16 -7 -3 -13 -31 -14 -74 -2 -61 1 -74 24 -109 33 -48 103 -87
141 -78 14 3 43 15 64 26 120 62 494 -63 862 -289 44 -27 89 -54 100 -61 139
-82 301 -125 450 -119 50 2 101 7 115 10 14 3 39 9 55 12 63 13 178 78 235
133 53 52 110 138 110 168 0 7 4 13 9 13 6 0 9 8 9 18 0 9 3 33 6 52 18 89 10
181 -25 300 -11 36 -19 69 -18 74 0 5 -3 12 -8 15 -5 3 -24 30 -42 60 -28 46
-83 114 -116 143 -91 79 -228 148 -327 164 -69 12 -176 10 -225 -2z"/>
<path d="M4630 1591 c0 -6 4 -13 10 -16 6 -3 7 1 4 9 -7 18 -14 21 -14 7z"/>
</g>
</svg>
